<svg xmlns="http://www.w3.org/2000/svg">
    <symbol id="icon-menu" viewBox="0 0 24 24">
            <path fill-rule="evenodd" clip-rule="evenodd" d="M3.52941 6.14116C3.52941 5.8229 3.65584 5.51768 3.88088 5.29263C4.10593 5.06759 4.41115 4.94116 4.72941 4.94116H19.1294C19.4477 4.94116 19.7529 5.06759 19.9779 5.29263C20.203 5.51768 20.3294 5.8229 20.3294 6.14116C20.3294 6.45942 20.203 6.76465 19.9779 6.98969C19.7529 7.21473 19.4477 7.34116 19.1294 7.34116H4.72941C4.41115 7.34116 4.10593 7.21473 3.88088 6.98969C3.65584 6.76465 3.52941 6.45942 3.52941 6.14116ZM3.52941 12.1412C3.52941 11.8229 3.65584 11.5177 3.88088 11.2926C4.10593 11.0676 4.41115 10.9412 4.72941 10.9412H19.1294C19.4477 10.9412 19.7529 11.0676 19.9779 11.2926C20.203 11.5177 20.3294 11.8229 20.3294 12.1412C20.3294 12.4594 20.203 12.7646 19.9779 12.9897C19.7529 13.2147 19.4477 13.3412 19.1294 13.3412H4.72941C4.41115 13.3412 4.10593 13.2147 3.88088 12.9897C3.65584 12.7646 3.52941 12.4594 3.52941 12.1412ZM3.88088 17.2926C3.65584 17.5177 3.52941 17.8229 3.52941 18.1412C3.52941 18.4594 3.65584 18.7646 3.88088 18.9897C4.10593 19.2147 4.41115 19.3412 4.72941 19.3412H11.9294C12.2477 19.3412 12.5529 19.2147 12.7779 18.9897C13.003 18.7646 13.1294 18.4594 13.1294 18.1412C13.1294 17.8229 13.003 17.5177 12.7779 17.2926C12.5529 17.0676 12.2477 16.9412 11.9294 16.9412H4.72941C4.41115 16.9412 4.10593 17.0676 3.88088 17.2926Z"/>
    </symbol>
    <symbol id="icon-close" viewBox="0 0 24 24">
        <path
            d="M13.41 11.9999L17.71 7.70994C17.8983 7.52164 18.0041 7.26624 18.0041 6.99994C18.0041 6.73364 17.8983 6.47825 17.71 6.28994C17.5217 6.10164 17.2663 5.99585 17 5.99585C16.7337 5.99585 16.4783 6.10164 16.29 6.28994L12 10.5899L7.70998 6.28994C7.52167 6.10164 7.26628 5.99585 6.99998 5.99585C6.73368 5.99585 6.47828 6.10164 6.28998 6.28994C6.10167 6.47825 5.99589 6.73364 5.99589 6.99994C5.99589 7.26624 6.10167 7.52164 6.28998 7.70994L10.59 11.9999L6.28998 16.2899C6.19625 16.3829 6.12185 16.4935 6.07109 16.6154C6.02032 16.7372 5.99418 16.8679 5.99418 16.9999C5.99418 17.132 6.02032 17.2627 6.07109 17.3845C6.12185 17.5064 6.19625 17.617 6.28998 17.7099C6.38294 17.8037 6.49354 17.8781 6.6154 17.9288C6.73726 17.9796 6.86796 18.0057 6.99998 18.0057C7.13199 18.0057 7.26269 17.9796 7.38455 17.9288C7.50641 17.8781 7.61701 17.8037 7.70998 17.7099L12 13.4099L16.29 17.7099C16.3829 17.8037 16.4935 17.8781 16.6154 17.9288C16.7373 17.9796 16.868 18.0057 17 18.0057C17.132 18.0057 17.2627 17.9796 17.3845 17.9288C17.5064 17.8781 17.617 17.8037 17.71 17.7099C17.8037 17.617 17.8781 17.5064 17.9289 17.3845C17.9796 17.2627 18.0058 17.132 18.0058 16.9999C18.0058 16.8679 17.9796 16.7372 17.9289 16.6154C17.8781 16.4935 17.8037 16.3829 17.71 16.2899L13.41 11.9999Z" />
    </symbol>
    <symbol id="icon-arrow-right" viewBox="0 0 24 24">
        <path
            d="M4.92893 11C4.37665 11 3.92893 11.4477 3.92893 12C3.92893 12.5523 4.37665 13 4.92893 13L16.6569 13L12.4714 17.1855C12.0809 17.576 12.0809 18.2091 12.4714 18.5997C12.8619 18.9902 13.4951 18.9902 13.8856 18.5997L19.7782 12.7071C19.8748 12.6105 19.9475 12.499 19.9964 12.38C20.0427 12.2673 20.069 12.1443 20.071 12.0155C20.0711 12.0052 20.0711 11.9948 20.071 11.9845C20.0671 11.7347 19.9702 11.4861 19.7803 11.295C19.7796 11.2943 19.7789 11.2936 19.7782 11.2929L13.8856 5.40034C13.4951 5.00981 12.8619 5.00981 12.4714 5.40034C12.0809 5.79086 12.0809 6.42403 12.4714 6.81455L16.6569 11L4.92893 11Z" />
    </symbol>
    <symbol id="icon-arrow-left" viewBox="0 0 24 24">
        <path
            d="M19.0711 11C19.6234 11 20.0711 11.4477 20.0711 12C20.0711 12.5523 19.6234 13 19.0711 13L7.34315 13L11.5286 17.1855C11.9191 17.576 11.9191 18.2091 11.5286 18.5997C11.1381 18.9902 10.5049 18.9902 10.1144 18.5997L4.22183 12.7071C4.12519 12.6105 4.05246 12.499 4.00365 12.38C3.95734 12.2673 3.93101 12.1443 3.92905 12.0155C3.92889 12.0052 3.92889 11.9948 3.92905 11.9845C3.93289 11.7347 4.02978 11.4861 4.21971 11.295C4.22041 11.2943 4.22112 11.2936 4.22183 11.2929L10.1144 5.40034C10.5049 5.00981 11.1381 5.00981 11.5286 5.40034C11.9191 5.79086 11.9191 6.42403 11.5286 6.81455L7.34315 11L19.0711 11Z" />
    </symbol>
    <symbol id="icon-arrow-up" viewBox="0 0 24 24">
        <path
            d="M13 19.071C13 19.6233 12.5523 20.071 12 20.071C11.4477 20.071 11 19.6233 11 19.071L11 7.34309L6.81455 11.5285C6.42402 11.9191 5.79086 11.9191 5.40034 11.5285C5.00981 11.138 5.00981 10.5049 5.40034 10.1143L11.2929 4.22177C11.3895 4.12513 11.501 4.05241 11.62 4.0036C11.7327 3.95729 11.8557 3.93095 11.9845 3.929C11.9948 3.92884 12.0052 3.92884 12.0155 3.929C12.2653 3.93284 12.5139 4.02972 12.705 4.21966C12.7057 4.22036 12.7064 4.22107 12.7071 4.22177L18.5997 10.1143C18.9902 10.5049 18.9902 11.138 18.5997 11.5285C18.2091 11.9191 17.576 11.9191 17.1854 11.5285L13 7.3431L13 19.071Z" />
    </symbol>
    <symbol id="icon-arrow-down" viewBox="0 0 24 24">
        <path
            d="M11 4.92886C11 4.37658 11.4477 3.92886 12 3.92886C12.5523 3.92886 13 4.37658 13 4.92886L13 16.6568L17.1855 12.4713C17.576 12.0808 18.2091 12.0808 18.5997 12.4713C18.9902 12.8619 18.9902 13.495 18.5997 13.8855L12.7071 19.7781C12.6105 19.8747 12.499 19.9475 12.38 19.9963C12.2673 20.0426 12.1443 20.0689 12.0155 20.0709C12.0052 20.071 11.9948 20.071 11.9845 20.0709C11.7347 20.067 11.4861 19.9702 11.295 19.7802C11.2943 19.7795 11.2936 19.7788 11.2929 19.7781L5.40034 13.8855C5.00981 13.495 5.00981 12.8619 5.40034 12.4713C5.79086 12.0808 6.42403 12.0808 6.81455 12.4713L11 16.6568L11 4.92886Z" />
    </symbol>
    <symbol id="icon-email" viewBox="0 0 24 24">
        <path
            d="M20 20H4C3.46957 20 2.96086 19.7893 2.58579 19.4142C2.21071 19.0391 2 18.5304 2 18V5.913C2.02243 5.39779 2.24301 4.91116 2.61568 4.5547C2.98835 4.19824 3.4843 3.99951 4 4H20C20.5304 4 21.0391 4.21071 21.4142 4.58579C21.7893 4.96086 22 5.46957 22 6V18C22 18.5304 21.7893 19.0391 21.4142 19.4142C21.0391 19.7893 20.5304 20 20 20ZM4 7.868V18H20V7.868L12 13.2L4 7.868ZM4.8 6L12 10.8L19.2 6H4.8Z" />
    </symbol>
    <symbol id="icon-phone" viewBox="0 0 24 24">
        <path
            d="M21.1276 5.16629L18.4651 2.50628C18.1401 2.18128 17.7051 1.99878 17.2451 1.99878C16.7851 1.99878 16.3501 2.17878 16.0251 2.50628L13.1575 5.36879C12.8325 5.6938 12.65 6.1313 12.65 6.5913C12.65 7.0538 12.83 7.4863 13.1575 7.8138L15.3976 10.0563C14.8873 11.2453 14.1541 12.3256 13.2375 13.2388C12.32 14.1613 11.2475 14.8888 10.0575 15.4038L7.81753 13.1613C7.49252 12.8363 7.05752 12.6538 6.59752 12.6538C6.37063 12.653 6.14585 12.6974 5.93636 12.7846C5.72686 12.8717 5.53687 12.9998 5.37751 13.1613L2.5075 16.0238C2.1825 16.3488 2 16.7863 2 17.2463C2 17.7088 2.18 18.1413 2.5075 18.4689L5.16751 21.1289C5.72252 21.6839 6.48752 22.0014 7.27252 22.0014C7.43502 22.0014 7.59252 21.9889 7.75253 21.9614C11.0625 21.4164 14.3476 19.6539 17.0001 17.0038C19.6501 14.3488 21.4101 11.0638 21.9601 7.7513C22.1176 6.8113 21.8026 5.8438 21.1276 5.16629ZM20.1876 7.4538C19.7001 10.4013 18.1151 13.3413 15.7276 15.7288C13.34 18.1164 10.4025 19.7014 7.45502 20.1889C7.08502 20.2514 6.70502 20.1264 6.43502 19.8589L3.82251 17.2463L6.59252 14.4738L9.58753 17.4738L9.61003 17.4963L10.15 17.2963C11.7874 16.6944 13.2742 15.7435 14.5075 14.5098C15.7409 13.276 16.6912 11.7889 17.2926 10.1513L17.4926 9.61131L14.4726 6.5938L17.2426 3.82129L19.8551 6.4338C20.1251 6.7038 20.2501 7.0838 20.1876 7.4538Z" />
    </symbol>
    <symbol id="icon-docs" viewBox="0 0 24 24">
        <path fill-rule="evenodd" clip-rule="evenodd"
            d="M7 5H17C17.2652 5 17.5196 5.10536 17.7071 5.29289C17.8946 5.48043 18 5.73478 18 6V18C18 18.2652 17.8946 18.5196 17.7071 18.7071C17.5196 18.8946 17.2652 19 17 19H7C6.73478 19 6.48043 18.8946 6.29289 18.7071C6.10536 18.5196 6 18.2652 6 18V6C6 5.73478 6.10536 5.48043 6.29289 5.29289C6.48043 5.10536 6.73478 5 7 5ZM4.87868 3.87868C5.44129 3.31607 6.20435 3 7 3H17C17.7956 3 18.5587 3.31607 19.1213 3.87868C19.6839 4.44129 20 5.20435 20 6V18C20 18.7956 19.6839 19.5587 19.1213 20.1213C18.5587 20.6839 17.7956 21 17 21H7C6.20435 21 5.44129 20.6839 4.87868 20.1213C4.31607 19.5587 4 18.7956 4 18V6C4 5.20435 4.31607 4.44129 4.87868 3.87868ZM16 7H8V9H16V7ZM8 11H16V13H8V11ZM13 15H8V17H13V15Z" />
    </symbol>
    <symbol id="icon-instagram" viewBox="0 0 24 24">
        <path fill-rule="evenodd" clip-rule="evenodd"
            d="M8.70182 4.048C9.55491 4.00873 9.82691 4 12 4C14.1731 4 14.4451 4.00945 15.2975 4.048C16.1498 4.08655 16.7316 4.22255 17.2407 4.41964C17.7738 4.62109 18.2575 4.936 18.6575 5.34327C19.0647 5.74255 19.3789 6.22545 19.5796 6.75927C19.7775 7.26836 19.9127 7.85018 19.952 8.70109C19.9913 9.55564 20 9.82764 20 12C20 14.1731 19.9905 14.4451 19.952 15.2982C19.9135 16.1491 19.7775 16.7309 19.5796 17.24C19.3789 17.7739 19.0642 18.2576 18.6575 18.6575C18.2575 19.0647 17.7738 19.3789 17.2407 19.5796C16.7316 19.7775 16.1498 19.9127 15.2989 19.952C14.4451 19.9913 14.1731 20 12 20C9.82691 20 9.55491 19.9905 8.70182 19.952C7.85091 19.9135 7.26909 19.7775 6.76 19.5796C6.22612 19.3789 5.74241 19.0642 5.34255 18.6575C4.93555 18.2579 4.62059 17.7745 4.41964 17.2407C4.22255 16.7316 4.08727 16.1498 4.048 15.2989C4.00873 14.4444 4 14.1724 4 12C4 9.82691 4.00945 9.55491 4.048 8.70255C4.08655 7.85018 4.22255 7.26836 4.41964 6.75927C4.62089 6.22551 4.93609 5.74205 5.34327 5.34255C5.74257 4.93564 6.2258 4.62069 6.75927 4.41964C7.26836 4.22255 7.85018 4.08727 8.70109 4.048H8.70182ZM15.2327 5.488C14.3891 5.44945 14.136 5.44145 12 5.44145C9.864 5.44145 9.61091 5.44945 8.76727 5.488C7.98691 5.52364 7.56364 5.65382 7.28145 5.76364C6.90836 5.90909 6.64145 6.08145 6.36145 6.36145C6.09603 6.61967 5.89177 6.93402 5.76364 7.28145C5.65382 7.56364 5.52364 7.98691 5.488 8.76727C5.44945 9.61091 5.44145 9.864 5.44145 12C5.44145 14.136 5.44945 14.3891 5.488 15.2327C5.52364 16.0131 5.65382 16.4364 5.76364 16.7185C5.89164 17.0655 6.096 17.3804 6.36145 17.6385C6.61964 17.904 6.93455 18.1084 7.28145 18.2364C7.56364 18.3462 7.98691 18.4764 8.76727 18.512C9.61091 18.5505 9.86327 18.5585 12 18.5585C14.1367 18.5585 14.3891 18.5505 15.2327 18.512C16.0131 18.4764 16.4364 18.3462 16.7185 18.2364C17.0916 18.0909 17.3585 17.9185 17.6385 17.6385C17.904 17.3804 18.1084 17.0655 18.2364 16.7185C18.3462 16.4364 18.4764 16.0131 18.512 15.2327C18.5505 14.3891 18.5585 14.136 18.5585 12C18.5585 9.864 18.5505 9.61091 18.512 8.76727C18.4764 7.98691 18.3462 7.56364 18.2364 7.28145C18.0909 6.90836 17.9185 6.64145 17.6385 6.36145C17.3803 6.09605 17.066 5.89179 16.7185 5.76364C16.4364 5.65382 16.0131 5.52364 15.2327 5.488ZM10.9782 14.4662C11.5488 14.7037 12.1843 14.7358 12.7759 14.5569C13.3676 14.378 13.8788 13.9992 14.2223 13.4853C14.5657 12.9713 14.72 12.3541 14.6589 11.739C14.5978 11.1239 14.3251 10.5491 13.8873 10.1127C13.6082 9.8338 13.2707 9.62023 12.8992 9.48738C12.5276 9.35453 12.1312 9.30572 11.7385 9.34445C11.3459 9.38318 10.9667 9.50849 10.6282 9.71137C10.2898 9.91424 10.0005 10.1896 9.78131 10.5177C9.56208 10.8458 9.41832 11.2184 9.36038 11.6087C9.30243 11.999 9.33175 12.3973 9.44621 12.7749C9.56068 13.1525 9.75744 13.5001 10.0223 13.7925C10.2872 14.085 10.6137 14.315 10.9782 14.4662ZM9.09236 9.09236C9.4742 8.71053 9.92751 8.40764 10.4264 8.20099C10.9253 7.99434 11.46 7.88798 12 7.88798C12.54 7.88798 13.0747 7.99434 13.5736 8.20099C14.0725 8.40764 14.5258 8.71053 14.9076 9.09236C15.2895 9.4742 15.5924 9.92751 15.799 10.4264C16.0057 10.9253 16.112 11.46 16.112 12C16.112 12.54 16.0057 13.0747 15.799 13.5736C15.5924 14.0725 15.2895 14.5258 14.9076 14.9076C14.1365 15.6788 13.0906 16.112 12 16.112C10.9094 16.112 9.86352 15.6788 9.09236 14.9076C8.32121 14.1365 7.88798 13.0906 7.88798 12C7.88798 10.9094 8.32121 9.86352 9.09236 9.09236ZM17.024 8.50036C17.1186 8.41111 17.1944 8.30377 17.2468 8.18471C17.2992 8.06565 17.3271 7.93729 17.329 7.80722C17.3309 7.67716 17.3067 7.54803 17.2578 7.4275C17.2089 7.30696 17.1363 7.19746 17.0443 7.10548C16.9524 7.0135 16.8429 6.94091 16.7223 6.89201C16.6018 6.84311 16.4727 6.81889 16.3426 6.82079C16.2125 6.82268 16.0842 6.85066 15.9651 6.90305C15.8461 6.95545 15.7387 7.0312 15.6495 7.12582C15.4759 7.30984 15.3808 7.55427 15.3845 7.80722C15.3882 8.06017 15.4903 8.30173 15.6692 8.48061C15.8481 8.6595 16.0896 8.76162 16.3426 8.76531C16.5955 8.769 16.84 8.67396 17.024 8.50036Z" />
    </symbol>
    <symbol id="icon-tumblr" viewBox="0 0 24 24">
        <path
            d="M16.3548 18.1349C15.8508 18.6407 14.6836 18.9843 13.6383 19H13.5234C10.0137 19 9.25012 16.571 9.25012 15.1535V11.2172H7.86821C7.83006 11.2171 7.79231 11.21 7.75718 11.1963C7.72204 11.1826 7.69022 11.1625 7.66358 11.1373C7.60923 11.0858 7.57886 11.0167 7.57895 10.9448V9.08512C7.57895 8.98945 7.61053 8.89612 7.66863 8.81796C7.72689 8.7402 7.80988 8.68108 7.90611 8.64879C9.70928 8.05029 10.2733 6.57096 10.3503 5.4463C10.3724 5.1453 10.5379 5.00005 10.8164 5.00005H12.8842C12.9229 4.99933 12.9613 5.00589 12.9972 5.01933C13.033 5.03277 13.0655 5.05281 13.0927 5.07822C13.1203 5.10372 13.1421 5.13401 13.157 5.16735C13.1718 5.20069 13.1794 5.23642 13.1792 5.27247V8.42421H15.5937C15.6701 8.42421 15.744 8.45337 15.7984 8.50412C15.8527 8.55562 15.8831 8.62471 15.883 8.69662V10.9308C15.8831 11.0027 15.8527 11.0718 15.7984 11.1233C15.7718 11.1486 15.74 11.1688 15.7048 11.1826C15.6697 11.1964 15.6319 11.2036 15.5937 11.2038H13.1685V14.8467C13.1685 15.7613 13.8095 16.0139 14.2042 16.0139C14.5267 16.0008 14.8444 15.9375 15.144 15.8267C15.259 15.7697 15.3906 15.7481 15.5198 15.7648C15.5736 15.7792 15.6221 15.8069 15.66 15.8449C15.6979 15.883 15.7237 15.93 15.7346 15.9807L16.3737 17.7388C16.4167 17.8771 16.4622 18.0293 16.3548 18.1355V18.1349Z" />
    </symbol>
    <symbol id="icon-tumblr" viewBox="0 0 24 24">
        <path
            d="M8.17811 17.6911V8.66212H5.17706V17.6911H8.17811ZM6.67797 7.42862C7.72449 7.42862 8.3759 6.7353 8.3759 5.86888C8.3564 4.98292 7.72453 4.30884 6.69783 4.30884C5.67129 4.30884 5 4.98293 5 5.86888C5 6.73534 5.65125 7.42862 6.65838 7.42862H6.67788H6.67797ZM9.83918 17.6911H12.8402V12.6489C12.8402 12.379 12.8597 12.1095 12.939 11.9166C13.1559 11.3774 13.6497 10.819 14.4787 10.819C15.5647 10.819 15.9991 11.647 15.9991 12.8607V17.6911H19V12.5139C19 9.74055 17.5194 8.45014 15.5449 8.45014C13.926 8.45014 13.2152 9.35508 12.8203 9.97143H12.8403V8.66193H9.83925C9.87863 9.50916 9.83925 17.6909 9.83925 17.6909L9.83918 17.6911Z" />
    </symbol>
    <symbol id="icon-behance" viewBox="0 0 24 24">
        <path
            d="M14.7523 7.09756H19.2439V8.18724H14.7523V7.09756ZM10.2518 11.409C11.2447 10.9339 11.7647 10.2113 11.7647 9.09456C11.7647 6.88593 10.1212 6.3501 8.22326 6.3501H3V17.436H8.36961C10.3824 17.436 12.2713 16.4679 12.2713 14.2165C12.2713 12.8251 11.6139 11.7962 10.2518 11.409ZM5.43602 8.24127H7.7212C8.6015 8.24127 9.39174 8.48668 9.39174 9.50881C9.39174 10.4499 8.77711 10.8281 7.90582 10.8281H5.43602V8.24127ZM8.0364 15.5538H5.43377V12.5009H8.08818C9.15985 12.5009 9.83752 12.949 9.83752 14.0837C9.83752 15.2004 9.02927 15.5538 8.0364 15.5538ZM21 13.5388C21 11.1636 19.6109 9.18461 17.0983 9.18461C14.6555 9.18461 12.994 11.024 12.994 13.4353C12.994 15.9343 14.5677 17.6499 17.0983 17.6499C19.0143 17.6499 20.2548 16.7876 20.8514 14.9482H18.9084C18.6968 15.6349 17.8368 15.9951 17.1681 15.9951C15.8758 15.9951 15.2004 15.2386 15.2004 13.9531H20.9842C20.991 13.8202 21 13.6807 21 13.5388ZM15.2004 12.5617C15.2702 11.5058 15.9749 10.8461 17.0285 10.8461C18.1362 10.8461 18.6901 11.4968 18.7869 12.5617H15.2004Z"/>
    </symbol>
</svg>