<svg xmlns="http://www.w3.org/2000/svg">
  <symbol id="icon-menu" viewBox="0 0 24 24">
    <path fill-rule="evenodd" clip-rule="evenodd"
      d="M3.52941 6.14116C3.52941 5.8229 3.65584 5.51768 3.88088 5.29263C4.10593 5.06759 4.41115 4.94116 4.72941 4.94116H19.1294C19.4477 4.94116 19.7529 5.06759 19.9779 5.29263C20.203 5.51768 20.3294 5.8229 20.3294 6.14116C20.3294 6.45942 20.203 6.76465 19.9779 6.98969C19.7529 7.21473 19.4477 7.34116 19.1294 7.34116H4.72941C4.41115 7.34116 4.10593 7.21473 3.88088 6.98969C3.65584 6.76465 3.52941 6.45942 3.52941 6.14116ZM3.52941 12.1412C3.52941 11.8229 3.65584 11.5177 3.88088 11.2926C4.10593 11.0676 4.41115 10.9412 4.72941 10.9412H19.1294C19.4477 10.9412 19.7529 11.0676 19.9779 11.2926C20.203 11.5177 20.3294 11.8229 20.3294 12.1412C20.3294 12.4594 20.203 12.7646 19.9779 12.9897C19.7529 13.2147 19.4477 13.3412 19.1294 13.3412H4.72941C4.41115 13.3412 4.10593 13.2147 3.88088 12.9897C3.65584 12.7646 3.52941 12.4594 3.52941 12.1412ZM3.88088 17.2926C3.65584 17.5177 3.52941 17.8229 3.52941 18.1412C3.52941 18.4594 3.65584 18.7646 3.88088 18.9897C4.10593 19.2147 4.41115 19.3412 4.72941 19.3412H11.9294C12.2477 19.3412 12.5529 19.2147 12.7779 18.9897C13.003 18.7646 13.1294 18.4594 13.1294 18.1412C13.1294 17.8229 13.003 17.5177 12.7779 17.2926C12.5529 17.0676 12.2477 16.9412 11.9294 16.9412H4.72941C4.41115 16.9412 4.10593 17.0676 3.88088 17.2926Z" />
  </symbol>
  <symbol id="icon-close" viewBox="0 0 24 24">
    <path
      d="M13.41 11.9999L17.71 7.70994C17.8983 7.52164 18.0041 7.26624 18.0041 6.99994C18.0041 6.73364 17.8983 6.47825 17.71 6.28994C17.5217 6.10164 17.2663 5.99585 17 5.99585C16.7337 5.99585 16.4783 6.10164 16.29 6.28994L12 10.5899L7.70998 6.28994C7.52167 6.10164 7.26628 5.99585 6.99998 5.99585C6.73368 5.99585 6.47828 6.10164 6.28998 6.28994C6.10167 6.47825 5.99589 6.73364 5.99589 6.99994C5.99589 7.26624 6.10167 7.52164 6.28998 7.70994L10.59 11.9999L6.28998 16.2899C6.19625 16.3829 6.12185 16.4935 6.07109 16.6154C6.02032 16.7372 5.99418 16.8679 5.99418 16.9999C5.99418 17.132 6.02032 17.2627 6.07109 17.3845C6.12185 17.5064 6.19625 17.617 6.28998 17.7099C6.38294 17.8037 6.49354 17.8781 6.6154 17.9288C6.73726 17.9796 6.86796 18.0057 6.99998 18.0057C7.13199 18.0057 7.26269 17.9796 7.38455 17.9288C7.50641 17.8781 7.61701 17.8037 7.70998 17.7099L12 13.4099L16.29 17.7099C16.3829 17.8037 16.4935 17.8781 16.6154 17.9288C16.7373 17.9796 16.868 18.0057 17 18.0057C17.132 18.0057 17.2627 17.9796 17.3845 17.9288C17.5064 17.8781 17.617 17.8037 17.71 17.7099C17.8037 17.617 17.8781 17.5064 17.9289 17.3845C17.9796 17.2627 18.0058 17.132 18.0058 16.9999C18.0058 16.8679 17.9796 16.7372 17.9289 16.6154C17.8781 16.4935 17.8037 16.3829 17.71 16.2899L13.41 11.9999Z" />
  </symbol>
  <symbol id="icon-arrow-right" viewBox="0 0 24 24">
    <path
      d="M4.92893 11C4.37665 11 3.92893 11.4477 3.92893 12C3.92893 12.5523 4.37665 13 4.92893 13L16.6569 13L12.4714 17.1855C12.0809 17.576 12.0809 18.2091 12.4714 18.5997C12.8619 18.9902 13.4951 18.9902 13.8856 18.5997L19.7782 12.7071C19.8748 12.6105 19.9475 12.499 19.9964 12.38C20.0427 12.2673 20.069 12.1443 20.071 12.0155C20.0711 12.0052 20.0711 11.9948 20.071 11.9845C20.0671 11.7347 19.9702 11.4861 19.7803 11.295C19.7796 11.2943 19.7789 11.2936 19.7782 11.2929L13.8856 5.40034C13.4951 5.00981 12.8619 5.00981 12.4714 5.40034C12.0809 5.79086 12.0809 6.42403 12.4714 6.81455L16.6569 11L4.92893 11Z" />
  </symbol>
  <symbol id="icon-arrow-left" viewBox="0 0 24 24">
    <path
      d="M19.0711 11C19.6234 11 20.0711 11.4477 20.0711 12C20.0711 12.5523 19.6234 13 19.0711 13L7.34315 13L11.5286 17.1855C11.9191 17.576 11.9191 18.2091 11.5286 18.5997C11.1381 18.9902 10.5049 18.9902 10.1144 18.5997L4.22183 12.7071C4.12519 12.6105 4.05246 12.499 4.00365 12.38C3.95734 12.2673 3.93101 12.1443 3.92905 12.0155C3.92889 12.0052 3.92889 11.9948 3.92905 11.9845C3.93289 11.7347 4.02978 11.4861 4.21971 11.295C4.22041 11.2943 4.22112 11.2936 4.22183 11.2929L10.1144 5.40034C10.5049 5.00981 11.1381 5.00981 11.5286 5.40034C11.9191 5.79086 11.9191 6.42403 11.5286 6.81455L7.34315 11L19.0711 11Z" />
  </symbol>
  <symbol id="icon-arrow-up" viewBox="0 0 24 24">
    <path
      d="M13 19.071C13 19.6233 12.5523 20.071 12 20.071C11.4477 20.071 11 19.6233 11 19.071L11 7.34309L6.81455 11.5285C6.42402 11.9191 5.79086 11.9191 5.40034 11.5285C5.00981 11.138 5.00981 10.5049 5.40034 10.1143L11.2929 4.22177C11.3895 4.12513 11.501 4.05241 11.62 4.0036C11.7327 3.95729 11.8557 3.93095 11.9845 3.929C11.9948 3.92884 12.0052 3.92884 12.0155 3.929C12.2653 3.93284 12.5139 4.02972 12.705 4.21966C12.7057 4.22036 12.7064 4.22107 12.7071 4.22177L18.5997 10.1143C18.9902 10.5049 18.9902 11.138 18.5997 11.5285C18.2091 11.9191 17.576 11.9191 17.1854 11.5285L13 7.3431L13 19.071Z" />
  </symbol>
  <symbol id="icon-arrow-down" viewBox="0 0 24 24">
    <path
      d="M11 4.92886C11 4.37658 11.4477 3.92886 12 3.92886C12.5523 3.92886 13 4.37658 13 4.92886L13 16.6568L17.1855 12.4713C17.576 12.0808 18.2091 12.0808 18.5997 12.4713C18.9902 12.8619 18.9902 13.495 18.5997 13.8855L12.7071 19.7781C12.6105 19.8747 12.499 19.9475 12.38 19.9963C12.2673 20.0426 12.1443 20.0689 12.0155 20.0709C12.0052 20.071 11.9948 20.071 11.9845 20.0709C11.7347 20.067 11.4861 19.9702 11.295 19.7802C11.2943 19.7795 11.2936 19.7788 11.2929 19.7781L5.40034 13.8855C5.00981 13.495 5.00981 12.8619 5.40034 12.4713C5.79086 12.0808 6.42403 12.0808 6.81455 12.4713L11 16.6568L11 4.92886Z" />
  </symbol>
  <symbol id="icon-email" viewBox="0 0 24 24">
    <path
      d="M20 20H4C3.46957 20 2.96086 19.7893 2.58579 19.4142C2.21071 19.0391 2 18.5304 2 18V5.913C2.02243 5.39779 2.24301 4.91116 2.61568 4.5547C2.98835 4.19824 3.4843 3.99951 4 4H20C20.5304 4 21.0391 4.21071 21.4142 4.58579C21.7893 4.96086 22 5.46957 22 6V18C22 18.5304 21.7893 19.0391 21.4142 19.4142C21.0391 19.7893 20.5304 20 20 20ZM4 7.868V18H20V7.868L12 13.2L4 7.868ZM4.8 6L12 10.8L19.2 6H4.8Z" />
  </symbol>
  <symbol id="icon-phone" viewBox="0 0 24 24">
    <path
      d="M21.1276 5.16629L18.4651 2.50628C18.1401 2.18128 17.7051 1.99878 17.2451 1.99878C16.7851 1.99878 16.3501 2.17878 16.0251 2.50628L13.1575 5.36879C12.8325 5.6938 12.65 6.1313 12.65 6.5913C12.65 7.0538 12.83 7.4863 13.1575 7.8138L15.3976 10.0563C14.8873 11.2453 14.1541 12.3256 13.2375 13.2388C12.32 14.1613 11.2475 14.8888 10.0575 15.4038L7.81753 13.1613C7.49252 12.8363 7.05752 12.6538 6.59752 12.6538C6.37063 12.653 6.14585 12.6974 5.93636 12.7846C5.72686 12.8717 5.53687 12.9998 5.37751 13.1613L2.5075 16.0238C2.1825 16.3488 2 16.7863 2 17.2463C2 17.7088 2.18 18.1413 2.5075 18.4689L5.16751 21.1289C5.72252 21.6839 6.48752 22.0014 7.27252 22.0014C7.43502 22.0014 7.59252 21.9889 7.75253 21.9614C11.0625 21.4164 14.3476 19.6539 17.0001 17.0038C19.6501 14.3488 21.4101 11.0638 21.9601 7.7513C22.1176 6.8113 21.8026 5.8438 21.1276 5.16629ZM20.1876 7.4538C19.7001 10.4013 18.1151 13.3413 15.7276 15.7288C13.34 18.1164 10.4025 19.7014 7.45502 20.1889C7.08502 20.2514 6.70502 20.1264 6.43502 19.8589L3.82251 17.2463L6.59252 14.4738L9.58753 17.4738L9.61003 17.4963L10.15 17.2963C11.7874 16.6944 13.2742 15.7435 14.5075 14.5098C15.7409 13.276 16.6912 11.7889 17.2926 10.1513L17.4926 9.61131L14.4726 6.5938L17.2426 3.82129L19.8551 6.4338C20.1251 6.7038 20.2501 7.0838 20.1876 7.4538Z" />
  </symbol>
  <symbol id="icon-docs" viewBox="0 0 24 24">
    <path fill-rule="evenodd" clip-rule="evenodd"
      d="M7 5H17C17.2652 5 17.5196 5.10536 17.7071 5.29289C17.8946 5.48043 18 5.73478 18 6V18C18 18.2652 17.8946 18.5196 17.7071 18.7071C17.5196 18.8946 17.2652 19 17 19H7C6.73478 19 6.48043 18.8946 6.29289 18.7071C6.10536 18.5196 6 18.2652 6 18V6C6 5.73478 6.10536 5.48043 6.29289 5.29289C6.48043 5.10536 6.73478 5 7 5ZM4.87868 3.87868C5.44129 3.31607 6.20435 3 7 3H17C17.7956 3 18.5587 3.31607 19.1213 3.87868C19.6839 4.44129 20 5.20435 20 6V18C20 18.7956 19.6839 19.5587 19.1213 20.1213C18.5587 20.6839 17.7956 21 17 21H7C6.20435 21 5.44129 20.6839 4.87868 20.1213C4.31607 19.5587 4 18.7956 4 18V6C4 5.20435 4.31607 4.44129 4.87868 3.87868ZM16 7H8V9H16V7ZM8 11H16V13H8V11ZM13 15H8V17H13V15Z" />
  </symbol>
  <symbol id="icon-instagram" viewBox="0 0 24 24">
    <path fill-rule="evenodd" clip-rule="evenodd"
      d="M8.70182 4.048C9.55491 4.00873 9.82691 4 12 4C14.1731 4 14.4451 4.00945 15.2975 4.048C16.1498 4.08655 16.7316 4.22255 17.2407 4.41964C17.7738 4.62109 18.2575 4.936 18.6575 5.34327C19.0647 5.74255 19.3789 6.22545 19.5796 6.75927C19.7775 7.26836 19.9127 7.85018 19.952 8.70109C19.9913 9.55564 20 9.82764 20 12C20 14.1731 19.9905 14.4451 19.952 15.2982C19.9135 16.1491 19.7775 16.7309 19.5796 17.24C19.3789 17.7739 19.0642 18.2576 18.6575 18.6575C18.2575 19.0647 17.7738 19.3789 17.2407 19.5796C16.7316 19.7775 16.1498 19.9127 15.2989 19.952C14.4451 19.9913 14.1731 20 12 20C9.82691 20 9.55491 19.9905 8.70182 19.952C7.85091 19.9135 7.26909 19.7775 6.76 19.5796C6.22612 19.3789 5.74241 19.0642 5.34255 18.6575C4.93555 18.2579 4.62059 17.7745 4.41964 17.2407C4.22255 16.7316 4.08727 16.1498 4.048 15.2989C4.00873 14.4444 4 14.1724 4 12C4 9.82691 4.00945 9.55491 4.048 8.70255C4.08655 7.85018 4.22255 7.26836 4.41964 6.75927C4.62089 6.22551 4.93609 5.74205 5.34327 5.34255C5.74257 4.93564 6.2258 4.62069 6.75927 4.41964C7.26836 4.22255 7.85018 4.08727 8.70109 4.048H8.70182ZM15.2327 5.488C14.3891 5.44945 14.136 5.44145 12 5.44145C9.864 5.44145 9.61091 5.44945 8.76727 5.488C7.98691 5.52364 7.56364 5.65382 7.28145 5.76364C6.90836 5.90909 6.64145 6.08145 6.36145 6.36145C6.09603 6.61967 5.89177 6.93402 5.76364 7.28145C5.65382 7.56364 5.52364 7.98691 5.488 8.76727C5.44945 9.61091 5.44145 9.864 5.44145 12C5.44145 14.136 5.44945 14.3891 5.488 15.2327C5.52364 16.0131 5.65382 16.4364 5.76364 16.7185C5.89164 17.0655 6.096 17.3804 6.36145 17.6385C6.61964 17.904 6.93455 18.1084 7.28145 18.2364C7.56364 18.3462 7.98691 18.4764 8.76727 18.512C9.61091 18.5505 9.86327 18.5585 12 18.5585C14.1367 18.5585 14.3891 18.5505 15.2327 18.512C16.0131 18.4764 16.4364 18.3462 16.7185 18.2364C17.0916 18.0909 17.3585 17.9185 17.6385 17.6385C17.904 17.3804 18.1084 17.0655 18.2364 16.7185C18.3462 16.4364 18.4764 16.0131 18.512 15.2327C18.5505 14.3891 18.5585 14.136 18.5585 12C18.5585 9.864 18.5505 9.61091 18.512 8.76727C18.4764 7.98691 18.3462 7.56364 18.2364 7.28145C18.0909 6.90836 17.9185 6.64145 17.6385 6.36145C17.3803 6.09605 17.066 5.89179 16.7185 5.76364C16.4364 5.65382 16.0131 5.52364 15.2327 5.488ZM10.9782 14.4662C11.5488 14.7037 12.1843 14.7358 12.7759 14.5569C13.3676 14.378 13.8788 13.9992 14.2223 13.4853C14.5657 12.9713 14.72 12.3541 14.6589 11.739C14.5978 11.1239 14.3251 10.5491 13.8873 10.1127C13.6082 9.8338 13.2707 9.62023 12.8992 9.48738C12.5276 9.35453 12.1312 9.30572 11.7385 9.34445C11.3459 9.38318 10.9667 9.50849 10.6282 9.71137C10.2898 9.91424 10.0005 10.1896 9.78131 10.5177C9.56208 10.8458 9.41832 11.2184 9.36038 11.6087C9.30243 11.999 9.33175 12.3973 9.44621 12.7749C9.56068 13.1525 9.75744 13.5001 10.0223 13.7925C10.2872 14.085 10.6137 14.315 10.9782 14.4662ZM9.09236 9.09236C9.4742 8.71053 9.92751 8.40764 10.4264 8.20099C10.9253 7.99434 11.46 7.88798 12 7.88798C12.54 7.88798 13.0747 7.99434 13.5736 8.20099C14.0725 8.40764 14.5258 8.71053 14.9076 9.09236C15.2895 9.4742 15.5924 9.92751 15.799 10.4264C16.0057 10.9253 16.112 11.46 16.112 12C16.112 12.54 16.0057 13.0747 15.799 13.5736C15.5924 14.0725 15.2895 14.5258 14.9076 14.9076C14.1365 15.6788 13.0906 16.112 12 16.112C10.9094 16.112 9.86352 15.6788 9.09236 14.9076C8.32121 14.1365 7.88798 13.0906 7.88798 12C7.88798 10.9094 8.32121 9.86352 9.09236 9.09236ZM17.024 8.50036C17.1186 8.41111 17.1944 8.30377 17.2468 8.18471C17.2992 8.06565 17.3271 7.93729 17.329 7.80722C17.3309 7.67716 17.3067 7.54803 17.2578 7.4275C17.2089 7.30696 17.1363 7.19746 17.0443 7.10548C16.9524 7.0135 16.8429 6.94091 16.7223 6.89201C16.6018 6.84311 16.4727 6.81889 16.3426 6.82079C16.2125 6.82268 16.0842 6.85066 15.9651 6.90305C15.8461 6.95545 15.7387 7.0312 15.6495 7.12582C15.4759 7.30984 15.3808 7.55427 15.3845 7.80722C15.3882 8.06017 15.4903 8.30173 15.6692 8.48061C15.8481 8.6595 16.0896 8.76162 16.3426 8.76531C16.5955 8.769 16.84 8.67396 17.024 8.50036Z" />
  </symbol>
  <symbol id="icon-tumblr" viewBox="0 0 24 24">
    <path
      d="M16.3548 18.1349C15.8508 18.6407 14.6836 18.9843 13.6383 19H13.5234C10.0137 19 9.25012 16.571 9.25012 15.1535V11.2172H7.86821C7.83006 11.2171 7.79231 11.21 7.75718 11.1963C7.72204 11.1826 7.69022 11.1625 7.66358 11.1373C7.60923 11.0858 7.57886 11.0167 7.57895 10.9448V9.08512C7.57895 8.98945 7.61053 8.89612 7.66863 8.81796C7.72689 8.7402 7.80988 8.68108 7.90611 8.64879C9.70928 8.05029 10.2733 6.57096 10.3503 5.4463C10.3724 5.1453 10.5379 5.00005 10.8164 5.00005H12.8842C12.9229 4.99933 12.9613 5.00589 12.9972 5.01933C13.033 5.03277 13.0655 5.05281 13.0927 5.07822C13.1203 5.10372 13.1421 5.13401 13.157 5.16735C13.1718 5.20069 13.1794 5.23642 13.1792 5.27247V8.42421H15.5937C15.6701 8.42421 15.744 8.45337 15.7984 8.50412C15.8527 8.55562 15.8831 8.62471 15.883 8.69662V10.9308C15.8831 11.0027 15.8527 11.0718 15.7984 11.1233C15.7718 11.1486 15.74 11.1688 15.7048 11.1826C15.6697 11.1964 15.6319 11.2036 15.5937 11.2038H13.1685V14.8467C13.1685 15.7613 13.8095 16.0139 14.2042 16.0139C14.5267 16.0008 14.8444 15.9375 15.144 15.8267C15.259 15.7697 15.3906 15.7481 15.5198 15.7648C15.5736 15.7792 15.6221 15.8069 15.66 15.8449C15.6979 15.883 15.7237 15.93 15.7346 15.9807L16.3737 17.7388C16.4167 17.8771 16.4622 18.0293 16.3548 18.1355V18.1349Z" />
  </symbol>
  <symbol id="icon-linkedin" viewBox="0 0 24 24">
    <path
      d="M8.17811 17.6911V8.66212H5.17706V17.6911H8.17811ZM6.67797 7.42862C7.72449 7.42862 8.3759 6.7353 8.3759 5.86888C8.3564 4.98292 7.72453 4.30884 6.69783 4.30884C5.67129 4.30884 5 4.98293 5 5.86888C5 6.73534 5.65125 7.42862 6.65838 7.42862H6.67788H6.67797ZM9.83918 17.6911H12.8402V12.6489C12.8402 12.379 12.8597 12.1095 12.939 11.9166C13.1559 11.3774 13.6497 10.819 14.4787 10.819C15.5647 10.819 15.9991 11.647 15.9991 12.8607V17.6911H19V12.5139C19 9.74055 17.5194 8.45014 15.5449 8.45014C13.926 8.45014 13.2152 9.35508 12.8203 9.97143H12.8403V8.66193H9.83925C9.87863 9.50916 9.83925 17.6909 9.83925 17.6909L9.83918 17.6911Z" />
  </symbol>
  <symbol id="icon-behance" viewBox="0 0 24 24">
    <path
      d="M14.7523 7.09756H19.2439V8.18724H14.7523V7.09756ZM10.2518 11.409C11.2447 10.9339 11.7647 10.2113 11.7647 9.09456C11.7647 6.88593 10.1212 6.3501 8.22326 6.3501H3V17.436H8.36961C10.3824 17.436 12.2713 16.4679 12.2713 14.2165C12.2713 12.8251 11.6139 11.7962 10.2518 11.409ZM5.43602 8.24127H7.7212C8.6015 8.24127 9.39174 8.48668 9.39174 9.50881C9.39174 10.4499 8.77711 10.8281 7.90582 10.8281H5.43602V8.24127ZM8.0364 15.5538H5.43377V12.5009H8.08818C9.15985 12.5009 9.83752 12.949 9.83752 14.0837C9.83752 15.2004 9.02927 15.5538 8.0364 15.5538ZM21 13.5388C21 11.1636 19.6109 9.18461 17.0983 9.18461C14.6555 9.18461 12.994 11.024 12.994 13.4353C12.994 15.9343 14.5677 17.6499 17.0983 17.6499C19.0143 17.6499 20.2548 16.7876 20.8514 14.9482H18.9084C18.6968 15.6349 17.8368 15.9951 17.1681 15.9951C15.8758 15.9951 15.2004 15.2386 15.2004 13.9531H20.9842C20.991 13.8202 21 13.6807 21 13.5388ZM15.2004 12.5617C15.2702 11.5058 15.9749 10.8461 17.0285 10.8461C18.1362 10.8461 18.6901 11.4968 18.7869 12.5617H15.2004Z" />
  </symbol>

  <symbol id="icon-keep" viewBox="0 0 181 339">
    <path fill-rule="evenodd" clip-rule="evenodd"
      d="M115.003 36.5549L138.825 17.1709L115.003 17.1709L115.003 0.860227L180.609 0.860229L180.609 17.1709L156.638 17.1709L180.609 36.5511L180.609 56.6235L148.077 29.6456L115.003 57.3549L115.003 36.5549ZM148.071 27.0419L178.609 52.3667L178.609 37.506L150.983 15.1709L178.609 15.1709L178.609 2.86023L117.003 2.86023L117.003 15.1709L144.452 15.1709L117.003 37.506L117.003 53.0702L148.071 27.0419ZM135.744 107.797L135.744 72.8196C133.698 73.3088 132.12 74.2351 130.918 75.5377C129.284 77.309 128.447 79.4806 128.447 82.1837C128.447 84.1787 128.875 85.7605 129.636 87.0169C130.394 88.2684 131.56 89.3234 133.242 90.1488L134.361 90.6979L134.361 107.907L131.788 107.138C126.668 105.608 122.433 102.662 119.124 98.3501L119.118 98.3426L119.112 98.3352C115.809 93.9477 114.209 88.6115 114.209 82.4475C114.209 77.4542 115.308 72.8971 117.545 68.8227L117.554 68.8063L117.563 68.79C119.868 64.7706 123.11 61.611 127.246 59.3286L127.256 59.3228L127.267 59.3173C131.424 57.0872 136.171 56.002 141.451 56.002C146.787 56.002 151.564 57.0854 155.724 59.3173C159.876 61.5448 163.101 64.6867 165.351 68.7231C167.598 72.7528 168.694 77.3468 168.694 82.4475C168.694 87.3734 167.627 91.8427 165.448 95.8044C163.265 99.833 160.135 102.952 156.095 105.128C152.112 107.364 147.565 108.453 142.51 108.453C140.66 108.453 138.959 108.331 137.417 108.075L135.744 107.797ZM155.132 103.376C158.839 101.382 161.692 98.5393 163.693 94.8461C165.693 91.2115 166.694 87.0786 166.694 82.4475C166.694 77.6404 165.664 73.3903 163.605 69.6971C161.545 66.0039 158.603 63.1314 154.779 61.0797C150.954 59.0279 146.512 58.002 141.451 58.002C136.45 58.002 132.037 59.0279 128.212 61.0797C124.388 63.1901 121.416 66.0919 119.298 69.7851C117.239 73.5369 116.209 77.7577 116.209 82.4475C116.209 88.2511 117.709 93.146 120.71 97.1323C123.325 100.539 126.542 103.004 130.361 104.527C131.01 104.786 131.676 105.018 132.361 105.222L132.361 91.9443C128.418 90.0097 126.447 86.7562 126.447 82.1837C126.447 79.0181 127.447 76.3507 129.448 74.1817C131.054 72.4406 133.153 71.3038 135.744 70.7715C136.381 70.6407 137.048 70.5464 137.744 70.4885L137.744 106.102C139.157 106.336 140.745 106.453 142.51 106.453C147.276 106.453 151.484 105.427 155.132 103.376ZM152.114 88.9709L152.124 88.9594C153.718 87.1302 154.544 84.8843 154.544 82.0957C154.544 79.497 153.756 77.4032 152.227 75.6891L152.225 75.6864C151.186 74.5181 149.816 73.6287 148.041 73.0658L148.041 91.4659C149.705 91.0841 151.033 90.2489 152.104 88.9825L152.114 88.9709ZM148.041 93.5073C147.405 93.6249 146.739 93.6901 146.041 93.7029L146.041 70.5765C146.741 70.6761 147.407 70.8114 148.041 70.9824C150.39 71.6165 152.283 72.7416 153.719 74.3576C155.602 76.468 156.544 79.0474 156.544 82.0957C156.544 85.32 155.573 88.0459 153.631 90.2735C152.162 92.0119 150.298 93.0898 148.041 93.5073ZM135.744 162.068L135.744 127.091C133.698 127.58 132.12 128.506 130.918 129.809C129.284 131.58 128.447 133.752 128.447 136.455C128.447 138.45 128.875 140.032 129.636 141.288C130.394 142.54 131.56 143.595 133.242 144.42L134.361 144.969L134.361 162.179L131.788 161.41C126.668 159.879 122.433 156.933 119.124 152.621L119.118 152.614L119.112 152.607C115.809 148.219 114.209 142.883 114.209 136.719C114.209 131.726 115.308 127.168 117.545 123.094L117.554 123.078L117.563 123.061C119.868 119.042 123.11 115.882 127.246 113.6L127.256 113.594L127.267 113.589C131.424 111.359 136.171 110.273 141.451 110.273C146.787 110.273 151.564 111.357 155.724 113.589C159.876 115.816 163.101 118.958 165.351 122.994C167.598 127.024 168.694 131.618 168.694 136.719C168.694 141.645 167.627 146.114 165.448 150.076C163.265 154.104 160.135 157.224 156.095 159.4C152.112 161.636 147.565 162.725 142.51 162.725C140.66 162.725 138.959 162.602 137.417 162.346L135.744 162.068ZM155.132 157.647C158.839 155.654 161.692 152.811 163.693 149.117C165.693 145.483 166.694 141.35 166.694 136.719C166.694 131.912 165.664 127.662 163.605 123.968C161.545 120.275 158.603 117.403 154.779 115.351C150.954 113.299 146.512 112.273 141.451 112.273C136.45 112.273 132.037 113.299 128.212 115.351C124.388 117.461 121.416 120.363 119.298 124.056C117.239 127.808 116.209 132.029 116.209 136.719C116.209 142.522 117.709 147.417 120.71 151.404C123.325 154.811 126.542 157.276 130.361 158.798C131.01 159.057 131.676 159.289 132.361 159.494L132.361 146.216C128.418 144.281 126.447 141.028 126.447 136.455C126.447 133.289 127.447 130.622 129.448 128.453C131.054 126.712 133.153 125.575 135.744 125.043C136.381 124.912 137.048 124.818 137.744 124.76L137.744 160.373C139.157 160.607 140.745 160.725 142.51 160.725C147.276 160.725 151.484 159.699 155.132 157.647ZM152.114 143.242L152.124 143.231C153.718 141.402 154.544 139.156 154.544 136.367C154.544 133.768 153.756 131.675 152.227 129.96L152.225 129.958C151.186 128.789 149.816 127.9 148.041 127.337L148.041 145.737C149.705 145.355 151.033 144.52 152.104 143.254L152.114 143.242ZM148.041 147.779C147.405 147.896 146.739 147.961 146.041 147.974L146.041 124.848C146.741 124.947 147.407 125.083 148.041 125.254C150.39 125.888 152.283 127.013 153.719 128.629C155.602 130.739 156.544 133.319 156.544 136.367C156.544 139.591 155.573 142.317 153.631 144.545C152.162 146.283 150.298 147.361 148.041 147.779ZM116.655 187.666L116.66 187.658C117.377 186.344 118.183 185.13 119.078 184.021L96.6503 184.021L96.6503 167.71L167.899 167.71L167.899 184.021L163.828 184.021C164.691 185.097 165.468 186.284 166.159 187.579C167.864 190.717 168.694 194.245 168.694 198.113C168.694 202.62 167.574 206.737 165.311 210.412C163.046 214.149 159.819 217.059 155.698 219.147C151.601 221.311 146.892 222.36 141.628 222.36C136.358 222.36 131.596 221.308 127.392 219.152C123.27 217.066 120.017 214.16 117.693 210.432C115.364 206.755 114.209 202.63 114.209 198.113C114.209 194.256 115.004 190.759 116.651 187.674L116.655 187.666ZM119.386 209.368C121.505 212.768 124.476 215.436 128.301 217.37C132.184 219.363 136.626 220.36 141.628 220.36C146.629 220.36 151.013 219.363 154.779 217.37C158.603 215.436 161.545 212.768 163.605 209.368C165.664 206.027 166.694 202.275 166.694 198.113C166.694 194.537 165.929 191.342 164.399 188.528C163.473 186.793 162.395 185.291 161.166 184.021C160.442 183.274 159.667 182.607 158.839 182.021L165.899 182.021L165.899 169.71L98.6503 169.71L98.6503 182.021L123.976 182.021C123.182 182.625 122.436 183.291 121.738 184.021C120.472 185.345 119.364 186.877 118.415 188.616C116.944 191.371 116.209 194.537 116.209 198.113C116.209 202.275 117.268 206.027 119.386 209.368ZM148.241 204.193L148.27 204.178C150.141 203.17 151.499 201.847 152.416 200.212L152.423 200.201L152.429 200.19C153.367 198.567 153.838 196.803 153.838 194.859C153.838 193.004 153.353 191.243 152.35 189.545L152.346 189.537L152.341 189.529C151.425 187.944 150.059 186.606 148.164 185.531C146.332 184.549 144.116 184.021 141.451 184.021C138.786 184.021 136.571 184.549 134.739 185.531C132.849 186.603 131.446 187.943 130.469 189.537C129.526 191.23 129.065 192.995 129.065 194.859C129.065 196.783 129.554 198.533 130.539 200.151L130.546 200.162L130.552 200.174C131.531 201.831 132.93 203.166 134.809 204.178L134.827 204.188L134.845 204.198C136.667 205.228 138.903 205.785 141.628 205.785C144.288 205.785 146.456 205.231 148.213 204.21L148.241 204.193ZM128.742 188.528C129.919 186.594 131.596 185.011 133.773 183.78C135.95 182.607 138.509 182.021 141.451 182.021C144.393 182.021 146.953 182.607 149.13 183.78C151.307 185.011 152.955 186.594 154.073 188.528C155.249 190.521 155.838 192.632 155.838 194.859C155.838 197.146 155.279 199.256 154.161 201.19C153.043 203.184 151.395 204.766 149.218 205.939C147.1 207.17 144.57 207.785 141.628 207.785C138.627 207.785 136.038 207.17 133.861 205.939C131.684 204.766 130.007 203.184 128.83 201.19C127.653 199.256 127.065 197.146 127.065 194.859C127.065 192.632 127.624 190.521 128.742 188.528ZM38.0899 37.3956L24.2931 37.3956L24.2931 0.860223L89.8986 0.860226L89.8986 17.1709L38.0899 17.1709L38.0899 37.3956ZM36.0899 15.1709L87.8986 15.1709L87.8986 2.86023L26.2931 2.86022L26.2931 35.3956L36.0899 35.3956L36.0899 15.1709ZM26.8403 51.2166L26.8462 51.2062C29.1467 47.1317 32.382 43.9126 36.5155 41.5685L36.5256 41.5627L36.5358 41.5571C40.6969 39.261 45.4513 38.1426 50.7411 38.1426C56.0401 38.1426 60.8019 39.2944 64.9667 41.6564L64.9768 41.6621L64.9867 41.6679C69.1181 44.0742 72.322 47.3556 74.5599 51.4918C76.852 55.6191 77.9835 60.2044 77.9835 65.2036C77.9835 70.2027 76.852 74.7879 74.56 78.9153C72.3213 83.0529 69.1144 86.3082 64.9769 88.6571C60.8109 91.0811 56.0451 92.2646 50.7411 92.2646C45.4277 92.2646 40.6548 91.0474 36.4855 88.5576C32.3524 86.148 29.1253 82.8366 26.8335 78.6506L26.8283 78.6411C24.5962 74.511 23.4987 69.8996 23.4987 64.8519C23.4987 59.8586 24.5981 55.3015 26.8346 51.2271L26.8403 51.2166ZM37.5021 86.8352C41.3267 89.1215 45.7397 90.2646 50.7411 90.2646C55.7425 90.2646 60.1555 89.1508 63.9801 86.9231C67.8047 84.7541 70.7467 81.7644 72.8061 77.9539C74.9244 74.1435 75.9835 69.8934 75.9835 65.2036C75.9835 60.5138 74.9244 56.2637 72.8061 52.4533C70.7467 48.6428 67.8047 45.6238 63.9801 43.3961C60.1555 41.2271 55.7425 40.1426 50.7411 40.1426C45.7397 40.1426 41.3267 41.1978 37.5021 43.3082C33.6775 45.4772 30.7061 48.4376 28.5878 52.1895C26.5284 55.9413 25.4987 60.1621 25.4987 64.8519C25.4987 69.6003 26.5284 73.8797 28.5878 77.6901C30.7061 81.5592 33.6775 84.6076 37.5021 86.8352ZM60.0259 72.4754L60.0431 72.459C62.1722 70.4364 63.2158 68.0017 63.2158 65.0277C63.2158 62.0541 62.1725 59.6197 60.044 57.5973C58.0623 55.717 55.067 54.6291 50.7411 54.6291C46.4193 54.6291 43.3791 55.6865 41.3323 57.5262C39.2852 59.4768 38.2664 61.8717 38.2664 64.8519C38.2664 66.7437 38.7115 68.491 39.6043 70.1253C40.5213 71.7562 41.8779 73.0766 43.746 74.0826C45.5652 75.0624 47.8689 75.6022 50.7411 75.6022C55.042 75.6022 58.0242 74.4696 60.009 72.4922L60.0259 72.4754ZM37.8551 71.0951C36.796 69.1606 36.2664 67.0795 36.2664 64.8519C36.2664 61.3345 37.5021 58.4034 39.9734 56.0585C42.5035 53.7723 46.0927 52.6291 50.7411 52.6291C55.3895 52.6291 58.9493 53.8016 61.4206 56.1465C63.9507 58.55 65.2158 61.5104 65.2158 65.0277C65.2158 68.5451 63.9507 71.5055 61.4206 73.909C58.9493 76.3711 55.3895 77.6022 50.7411 77.6022C47.6226 77.6022 44.9748 77.016 42.7977 75.8435C40.6206 74.6711 38.9731 73.0883 37.8551 71.0951ZM26.8403 107.291L26.8462 107.281C29.1467 103.206 32.3821 99.9873 36.5155 97.6432L36.5256 97.6374L36.5358 97.6318C40.6969 95.3357 45.4513 94.2173 50.7411 94.2173C56.0401 94.2173 60.8019 95.3691 64.9667 97.7311L64.9768 97.7368L64.9867 97.7426C69.1182 100.149 72.3221 103.43 74.56 107.567C76.852 111.694 77.9835 116.279 77.9835 121.278C77.9835 126.278 76.8519 130.863 74.5598 134.99C72.3212 139.128 69.1146 142.383 64.9774 144.731C60.8113 147.156 56.0453 148.339 50.7411 148.339C45.4282 148.339 40.6556 147.122 36.4866 144.633C32.3529 142.223 29.1255 138.912 26.8335 134.725L26.8283 134.716C24.5962 130.586 23.4987 125.974 23.4987 120.927C23.4987 115.933 24.5981 111.376 26.8346 107.302L26.8403 107.291ZM37.5021 142.91C41.3267 145.196 45.7397 146.339 50.7411 146.339C55.7425 146.339 60.1555 145.225 63.9801 142.998C67.8047 140.829 70.7467 137.839 72.8061 134.029C74.9244 130.218 75.9835 125.968 75.9835 121.278C75.9835 116.588 74.9244 112.338 72.8061 108.528C70.7467 104.717 67.8047 101.698 63.9801 99.4708C60.1555 97.3018 55.7425 96.2173 50.7411 96.2173C45.7397 96.2173 41.3267 97.2725 37.5021 99.3829C33.6775 101.552 30.7061 104.512 28.5878 108.264C26.5284 112.016 25.4987 116.237 25.4987 120.927C25.4987 125.675 26.5284 129.954 28.5878 133.765C30.7061 137.634 33.6775 140.682 37.5021 142.91ZM60.0259 128.55L60.0431 128.534C62.1722 126.511 63.2158 124.076 63.2158 121.102C63.2158 118.129 62.1725 115.694 60.0439 113.672C58.0623 111.792 55.067 110.704 50.7411 110.704C46.4192 110.704 43.379 111.761 41.3322 113.601C39.2852 115.552 38.2664 117.946 38.2664 120.927C38.2664 122.818 38.7115 124.566 39.6043 126.2C40.5212 127.831 41.8779 129.151 43.746 130.157C45.5652 131.137 47.8689 131.677 50.7411 131.677C55.042 131.677 58.0242 130.544 60.009 128.567L60.0259 128.55ZM37.8551 127.17C36.796 125.235 36.2664 123.154 36.2664 120.927C36.2664 117.409 37.5021 114.478 39.9734 112.133C42.5035 109.847 46.0927 108.704 50.7411 108.704C55.3895 108.704 58.9493 109.876 61.4206 112.221C63.9507 114.625 65.2158 117.585 65.2158 121.102C65.2158 124.62 63.9507 127.58 61.4206 129.984C58.9493 132.446 55.3895 133.677 50.7411 133.677C47.6226 133.677 44.9748 133.091 42.7977 131.918C40.6206 130.746 38.9731 129.163 37.8551 127.17ZM24.2931 183.246L41.3853 169.68L24.2931 169.68L24.2931 153.37L93.6055 153.37L93.6055 169.68L60.2143 169.68L77.1891 183.066L77.1891 204.445L50.663 181.25L24.2931 204.666L24.2931 183.246ZM50.6528 178.584L75.1891 200.04L75.1891 184.036L54.448 167.68L91.6055 167.68L91.6055 155.37L26.2931 155.37L26.2931 167.68L47.1224 167.68L26.2931 184.212L26.2931 200.216L50.6528 178.584ZM81.6032 206.125L81.6327 206.096C83.4334 204.302 85.6827 203.402 88.2516 203.402C90.8209 203.402 93.0582 204.303 94.8109 206.125C96.6074 207.989 97.489 210.316 97.489 212.965C97.489 215.599 96.6157 217.903 94.8117 219.716C93.0702 221.586 90.8346 222.527 88.2516 222.527C85.6562 222.527 83.3983 221.578 81.6041 219.716L81.6029 219.715C79.85 217.893 79.0143 215.588 79.0143 212.965C79.0143 210.34 79.8493 208.025 81.5749 206.156L81.6032 206.125ZM93.3707 218.329C94.7829 216.922 95.489 215.134 95.489 212.965C95.489 210.796 94.7829 208.978 93.3707 207.513C92.0174 206.106 90.311 205.402 88.2516 205.402C86.1922 205.402 84.4565 206.106 83.0443 207.513C81.691 208.978 81.0143 210.796 81.0143 212.965C81.0143 215.134 81.691 216.922 83.0443 218.329C84.4564 219.794 86.1922 220.527 88.2516 220.527C90.311 220.527 92.0174 219.794 93.3707 218.329ZM77.1891 221.032L24.2931 221.032L24.2931 204.721L77.1891 204.721L77.1891 221.032ZM24.293 279.624L24.293 263.313L53.3006 263.313C56.8681 263.313 59.2771 262.427 60.8456 260.954L60.8558 260.944L60.8662 260.934C62.5001 259.442 63.3923 257.378 63.3923 254.497C63.3923 251.547 62.4925 249.415 60.8444 247.864C59.2758 246.391 56.8672 245.506 53.3006 245.506L24.293 245.506L24.2931 229.195L77.1891 229.195L77.1891 245.506L73.8364 245.506C74.6094 246.546 75.2806 247.676 75.8498 248.894C77.2202 251.758 77.8952 254.867 77.8952 258.19C77.8952 264.459 75.8737 269.693 71.7278 273.695C67.6069 277.73 61.929 279.624 54.9776 279.624L24.293 279.624ZM70.3348 272.26C74.0417 268.684 75.8952 263.994 75.8952 258.19C75.8952 255.142 75.2774 252.328 74.0418 249.749C73.2999 248.16 72.3709 246.745 71.2548 245.506C70.6006 244.779 69.882 244.112 69.0992 243.506L75.1891 243.506L75.1891 231.195L26.2931 231.195L26.293 243.506L53.3006 243.506C57.1841 243.506 60.1555 244.473 62.2149 246.407C64.3331 248.401 65.3923 251.097 65.3923 254.497C65.3923 257.839 64.3331 260.477 62.2149 262.411C60.1555 264.346 57.1841 265.313 53.3006 265.313L26.293 265.313L26.293 277.624L54.9776 277.624C61.5677 277.624 66.6867 275.836 70.3348 272.26ZM20.2913 300.498C18.0554 301.143 16.2902 302.521 14.9958 304.631C13.6424 306.8 12.9658 309.409 12.9658 312.457C12.9658 316.033 14.0543 318.935 16.2314 321.162C18.3496 323.39 21.5858 324.504 25.94 324.504L33.5304 324.504C32.685 323.921 31.8915 323.254 31.1498 322.504C29.8785 321.218 28.7597 319.686 27.7935 317.909C26.2636 315.154 25.4987 311.988 25.4987 308.412C25.4987 304.309 26.5578 300.557 28.6761 297.157C30.7943 293.757 33.7657 291.06 37.5903 289.067C41.4738 287.132 45.9162 286.165 50.9176 286.165C55.8602 286.165 60.2438 287.132 64.0684 289.067C67.893 291.06 70.835 293.727 72.8944 297.069C74.9538 300.469 75.9835 304.25 75.9835 308.412C75.9835 312.047 75.248 315.242 73.777 317.997C72.8878 319.732 71.8238 321.234 70.5848 322.504C69.8559 323.251 69.0665 323.918 68.2166 324.504L75.1891 324.504L75.1891 336.903L25.94 336.903C21.4093 336.903 17.3788 335.994 13.8484 334.177C10.2591 332.359 7.43482 329.633 5.37541 325.999C3.25717 322.364 2.19805 317.968 2.19805 312.809C2.19805 305.891 3.81615 300.205 7.05236 295.75C9.89238 291.891 13.6387 289.5 18.2913 288.576C18.9404 288.447 19.607 288.347 20.2913 288.275L20.2913 300.498ZM3.64084 326.994C1.31267 322.994 0.198045 318.237 0.198045 312.809C0.198046 305.578 1.89252 299.45 5.43419 294.574L5.44161 294.564C9.0224 289.699 13.9521 286.929 20.0827 286.286L22.2913 286.055L22.2913 302.003L20.8456 302.42C19.1215 302.917 17.7525 303.962 16.7006 305.677L16.6966 305.683L16.6926 305.69C15.5726 307.485 14.9658 309.71 14.9658 312.457C14.9658 315.594 15.9044 317.966 17.6617 319.765L17.6713 319.774L17.6807 319.784C19.2867 321.473 21.9014 322.504 25.94 322.504L28.4639 322.504C27.5694 321.411 26.7627 320.199 26.0418 318.874C24.328 315.785 23.4987 312.279 23.4987 308.412C23.4987 303.944 24.6576 299.825 26.9786 296.099C29.3004 292.372 32.5495 289.439 36.666 287.293L36.6822 287.285L36.6986 287.277C40.8985 285.184 45.6541 284.165 50.9176 284.165C56.1257 284.165 60.8266 285.186 64.9711 287.282L64.9819 287.288L64.9927 287.293C69.1047 289.436 72.3298 292.341 74.597 296.019L74.601 296.026L74.605 296.033C76.8628 299.76 77.9835 303.903 77.9835 308.412C77.9835 312.315 77.193 315.839 75.5489 318.924C74.8795 320.228 74.1135 321.423 73.2494 322.504L77.1891 322.504L77.1891 338.903L25.94 338.903C21.1392 338.903 16.7898 337.938 12.9405 335.959C8.99117 333.958 5.88527 330.952 3.64084 326.994ZM57.4613 320.99L57.4714 320.984C59.3428 319.977 60.7009 318.653 61.6179 317.018L61.6288 316.999L61.6401 316.98C62.6374 315.291 63.1275 313.502 63.1275 311.578C63.1275 309.634 62.6568 307.87 61.7189 306.247C60.8016 304.66 59.4322 303.32 57.5324 302.244C55.7693 301.27 53.5896 300.739 50.9176 300.739C48.2584 300.739 46.0067 301.265 44.107 302.255C42.2139 303.331 40.8111 304.675 39.835 306.275C38.8375 307.969 38.3547 309.726 38.3547 311.578C38.3547 313.514 38.8221 315.31 39.765 316.999C40.7493 318.659 42.1233 319.986 43.9326 320.99C45.7603 321.972 48.0062 322.504 50.7411 322.504C53.4832 322.504 55.6923 321.969 57.4512 320.995L57.4613 320.99ZM42.9742 322.745C40.856 321.573 39.2084 319.99 38.0316 317.997C36.9137 316.004 36.3547 313.864 36.3547 311.578C36.3547 309.35 36.9431 307.24 38.1199 305.246C39.2967 303.312 40.9737 301.729 43.1507 300.498C45.3866 299.326 47.9756 298.739 50.9176 298.739C53.8596 298.739 56.3897 299.326 58.508 300.498C60.6851 301.729 62.3326 303.312 63.4505 305.246C64.5685 307.181 65.1275 309.291 65.1275 311.578C65.1275 313.864 64.5391 316.004 63.3623 317.997C62.2443 319.99 60.5968 321.573 58.4197 322.745C56.3015 323.918 53.7419 324.504 50.7411 324.504C47.7403 324.504 45.1513 323.918 42.9742 322.745ZM26.2931 219.032L75.1891 219.032L75.1891 206.721L26.2931 206.721L26.2931 219.032Z" />
  </symbol>
  <symbol viewBox="0 0 356 310" id="icon-wave-menu">
    <path
      d="M258.052 195.185C283.373 189.291 290.563 191.216 279.754 199.331C269.894 206.924 242.035 220.706 219.509 226.592C196.983 232.477 179.39 230.804 185.06 211.257C189.21 192.641 216.624 156.204 250.352 113.258C276.983 74.3818 294.028 43.9316 285.35 32.7213C278.125 20.6194 245.178 27.7574 204.908 43.9409C163.875 60.799 124.258 81.1541 86.5806 104.736C54.7412 124.992 39.4836 139.957 41.4286 147.507C50.4751 159.976 96.3941 157.5 95.974 173.856C102.045 187.106 61.7765 219.188 49.1061 229.447C50.6153 231.493 37.2765 248.027 78.4679 241.027C113.101 237.118 202.253 209.709 258.052 195.185Z"
      fill="#5FE0B9" />
  </symbol>
  <symbol id="icon-wave" viewBox="0 0 700 700">
    <g clip-path="url(#clip0_1846_1842)">
      <path fill-rule="evenodd" clip-rule="evenodd"
        d="M1016.36 417.957C1076.62 509.689 1116.12 615.328 1110.8 724.98C1105.19 840.671 1086.55 982.366 986.173 1040.32C883.738 1099.46 761.051 986.535 643.091 995.025C547.468 1001.91 471.878 1097.93 377.016 1084.17C268.728 1068.46 162.193 1009.5 104.106 916.845C44.6769 822.049 28.812 696.187 68.0671 591.354C104.591 493.816 232.521 472.812 300.075 393.503C373.826 306.917 369.301 148.618 476.814 111.475C582.611 74.924 686.085 171.291 783.352 226.542C872.956 277.441 959.794 331.85 1016.36 417.957Z"
        fill="#72FAC5" />
      <path fill-rule="evenodd" clip-rule="evenodd"
        d="M461.592 1207.29C356.467 1176.13 238.944 1154.04 206.617 1049.11C175.587 948.397 266.556 846.421 271.067 741.067C275.497 637.629 174.43 540.533 211.942 444.013C251.259 342.85 356.001 269.718 462.346 248.905C565.554 228.705 669.552 278.954 756.963 337.345C830.412 386.409 864.147 470.486 908.51 546.944C949.239 617.139 1006.53 682.975 1004.63 764.193C1002.72 845.733 941.006 908.437 898.42 978.01C849.308 1058.25 818.585 1154.15 737.174 1201.14C644.415 1254.67 564.148 1237.69 461.592 1207.29Z"
        fill="#050505" />
    </g>
    <defs>
      <clipPath id="clip0_1846_1842">
        <rect width="700" height="700" fill="white"
          transform="translate(3.8147e-05 0.551758)" />
      </clipPath>
    </defs>
  </symbol>
  <symbol viewBox="0 0 24 24" id="icon-plus">
    <path
      d="M10.7103 10.7103V5.43359H13.1568V10.7103H18.4336V13.1568H13.1568V18.4336H10.7103V13.1568H5.43359V10.7103H10.7103Z" />
  </symbol>
</svg>
    